<svg width="16" height="16" viewBox="0 0 16 16" fill="none" xmlns="http://www.w3.org/2000/svg">
<g clip-path="url(#clip0)">
<path d="M8.21014 16.0001C12.5124 16.0001 16 12.5125 16 8.21026C16 3.90804 12.5124 0.42041 8.21014 0.42041C3.90792 0.42041 0.42029 3.90804 0.42029 8.21026C0.42029 12.5125 3.90792 16.0001 8.21014 16.0001Z" fill="#5770DE"/>
<mask id="mask0" mask-type="alpha" maskUnits="userSpaceOnUse" x="4" y="4" width="9" height="8">
<path d="M12.4498 6.03553C12.2762 5.85368 12.0365 5.74623 11.7638 5.74623H10.3916V5.72969C10.3916 5.52305 10.309 5.32467 10.1685 5.19242C10.0279 5.0519 9.83782 4.96924 9.63117 4.96924H7.15142C6.93651 4.96924 6.7464 5.0519 6.60588 5.19242C6.46536 5.33293 6.3827 5.52305 6.3827 5.72969V5.74623H5.01884C4.74607 5.74623 4.50636 5.85368 4.33278 6.03553C4.15919 6.20911 4.04347 6.45709 4.04347 6.72159V10.838C4.04347 11.1107 4.15093 11.3505 4.33278 11.524C4.50636 11.6976 4.75433 11.8133 5.01884 11.8133H11.7638C12.0365 11.8133 12.2762 11.7059 12.4498 11.524C12.6234 11.3505 12.7391 11.1025 12.7391 10.838V6.72159C12.7391 6.44882 12.6317 6.20911 12.4498 6.03553ZM12.3093 10.838H12.301C12.301 10.9868 12.2432 11.119 12.144 11.2182C12.0448 11.3174 11.9125 11.3753 11.7638 11.3753H5.01884C4.87006 11.3753 4.7378 11.3174 4.63861 11.2182C4.53942 11.119 4.48156 10.9868 4.48156 10.838V6.72159C4.48156 6.57281 4.53942 6.44056 4.63861 6.34137C4.7378 6.24218 4.87006 6.18432 5.01884 6.18432H6.61415C6.73813 6.18432 6.83732 6.08513 6.83732 5.96114V5.72143C6.83732 5.6305 6.87039 5.54785 6.92825 5.48999C6.98611 5.43212 7.06877 5.39906 7.15969 5.39906H9.63117C9.7221 5.39906 9.80476 5.43212 9.86262 5.48999C9.92048 5.54785 9.95354 5.6305 9.95354 5.72143V5.96114C9.95354 6.08513 10.0527 6.18432 10.1767 6.18432H11.772C11.9208 6.18432 12.0531 6.24218 12.1523 6.34137C12.2514 6.44056 12.3093 6.57281 12.3093 6.72159V10.838Z" fill="white"/>
</mask>
<g mask="url(#mask0)">
<path d="M12.4498 6.03553C12.2762 5.85368 12.0365 5.74623 11.7638 5.74623H10.3916V5.72969C10.3916 5.52305 10.309 5.32467 10.1685 5.19242C10.0279 5.0519 9.83782 4.96924 9.63117 4.96924H7.15142C6.93651 4.96924 6.7464 5.0519 6.60588 5.19242C6.46536 5.33293 6.3827 5.52305 6.3827 5.72969V5.74623H5.01884C4.74607 5.74623 4.50636 5.85368 4.33278 6.03553C4.15919 6.20911 4.04347 6.45709 4.04347 6.72159V10.838C4.04347 11.1107 4.15093 11.3505 4.33278 11.524C4.50636 11.6976 4.75433 11.8133 5.01884 11.8133H11.7638C12.0365 11.8133 12.2762 11.7059 12.4498 11.524C12.6234 11.3505 12.7391 11.1025 12.7391 10.838V6.72159C12.7391 6.44882 12.6317 6.20911 12.4498 6.03553ZM12.3093 10.838H12.301C12.301 10.9868 12.2432 11.119 12.144 11.2182C12.0448 11.3174 11.9125 11.3753 11.7638 11.3753H5.01884C4.87006 11.3753 4.7378 11.3174 4.63861 11.2182C4.53942 11.119 4.48156 10.9868 4.48156 10.838V6.72159C4.48156 6.57281 4.53942 6.44056 4.63861 6.34137C4.7378 6.24218 4.87006 6.18432 5.01884 6.18432H6.61415C6.73813 6.18432 6.83732 6.08513 6.83732 5.96114V5.72143C6.83732 5.6305 6.87039 5.54785 6.92825 5.48999C6.98611 5.43212 7.06877 5.39906 7.15969 5.39906H9.63117C9.7221 5.39906 9.80476 5.43212 9.86262 5.48999C9.92048 5.54785 9.95354 5.6305 9.95354 5.72143V5.96114C9.95354 6.08513 10.0527 6.18432 10.1767 6.18432H11.772C11.9208 6.18432 12.0531 6.24218 12.1523 6.34137C12.2514 6.44056 12.3093 6.57281 12.3093 6.72159V10.838Z" fill="white"/>
<path d="M12.4498 6.03553L11.7265 6.72601L11.7425 6.74283L11.7593 6.75889L12.4498 6.03553ZM10.3916 5.74623H9.39163V6.74623H10.3916V5.74623ZM10.1685 5.19242L9.46135 5.89952L9.47206 5.91023L9.48309 5.92062L10.1685 5.19242ZM6.3827 5.74623V6.74623H7.3827V5.74623H6.3827ZM4.33278 6.03553L5.03988 6.74264L5.0481 6.73442L5.05613 6.72601L4.33278 6.03553ZM4.04347 10.838H5.04347H4.04347ZM4.33278 11.524L5.03988 10.8169L5.03166 10.8087L5.02325 10.8007L4.33278 11.524ZM12.4498 11.524L11.7427 10.8169L11.7345 10.8252L11.7265 10.8336L12.4498 11.524ZM12.7391 6.72159H11.7391H12.7391ZM12.3093 10.838V11.838H13.3093V10.838H12.3093ZM12.301 10.838V9.83798H11.301V10.838H12.301ZM13.1732 5.34505C12.8115 4.96612 12.3106 4.74623 11.7638 4.74623V6.74623C11.7673 6.74623 11.7612 6.74661 11.7501 6.74183C11.7393 6.7372 11.7311 6.73087 11.7265 6.72601L13.1732 5.34505ZM11.7638 4.74623H10.3916V6.74623H11.7638V4.74623ZM11.3916 5.74623V5.72969H9.39163V5.74623H11.3916ZM11.3916 5.72969C11.3916 5.26776 11.2095 4.79901 10.8538 4.46422L9.48309 5.92062C9.44347 5.88332 9.42139 5.84599 9.40935 5.81704C9.39721 5.78783 9.39163 5.75867 9.39163 5.72969H11.3916ZM10.8756 4.48531C10.553 4.16271 10.1107 3.96924 9.63117 3.96924V5.96924C9.56498 5.96924 9.5029 5.94108 9.46135 5.89952L10.8756 4.48531ZM9.63117 3.96924H7.15142V5.96924H9.63117V3.96924ZM7.15142 3.96924C6.66943 3.96924 6.22551 4.15858 5.89877 4.48531L7.31299 5.89952C7.29257 5.91994 7.26595 5.93849 7.23463 5.95152C7.20295 5.96469 7.17357 5.96924 7.15142 5.96924V3.96924ZM5.89877 4.48531C5.57618 4.80791 5.3827 5.25021 5.3827 5.72969H7.3827C7.3827 5.79589 7.35454 5.85796 7.31299 5.89952L5.89877 4.48531ZM5.3827 5.72969V5.74623H7.3827V5.72969H5.3827ZM6.3827 4.74623H5.01884V6.74623H6.3827V4.74623ZM5.01884 4.74623C4.47196 4.74623 3.97113 4.96612 3.60942 5.34505L5.05613 6.72601C5.05149 6.73087 5.04332 6.7372 5.03253 6.74183C5.02138 6.74661 5.01525 6.74623 5.01884 6.74623V4.74623ZM3.62567 5.32842C3.28168 5.67242 3.04347 6.16859 3.04347 6.72159H5.04347C5.04347 6.73549 5.04049 6.7423 5.04049 6.7423C5.04042 6.74247 5.04059 6.74207 5.04096 6.74152C5.04136 6.74094 5.04121 6.74131 5.03988 6.74264L3.62567 5.32842ZM3.04347 6.72159V10.838H5.04347V6.72159H3.04347ZM3.04347 10.838C3.04347 11.3849 3.26337 11.8857 3.6423 12.2474L5.02325 10.8007C5.02812 10.8053 5.03445 10.8135 5.03908 10.8243C5.04386 10.8354 5.04347 10.8416 5.04347 10.838H3.04347ZM3.62567 12.2311C3.96966 12.5751 4.46584 12.8133 5.01884 12.8133V10.8133C5.03273 10.8133 5.03954 10.8163 5.03955 10.8163C5.03971 10.8164 5.03932 10.8162 5.03877 10.8159C5.03819 10.8155 5.03855 10.8156 5.03988 10.8169L3.62567 12.2311ZM5.01884 12.8133H11.7638V10.8133H5.01884V12.8133ZM11.7638 12.8133C12.3106 12.8133 12.8115 12.5935 13.1732 12.2145L11.7265 10.8336C11.7311 10.8287 11.7393 10.8224 11.7501 10.8177C11.7612 10.813 11.7673 10.8133 11.7638 10.8133V12.8133ZM13.1569 12.2311C13.5009 11.8872 13.7391 11.391 13.7391 10.838H11.7391C11.7391 10.8241 11.7421 10.8173 11.7421 10.8173C11.7422 10.8171 11.742 10.8175 11.7416 10.818C11.7412 10.8186 11.7414 10.8183 11.7427 10.8169L13.1569 12.2311ZM13.7391 10.838V6.72159H11.7391V10.838H13.7391ZM13.7391 6.72159C13.7391 6.17472 13.5192 5.67388 13.1403 5.31217L11.7593 6.75889C11.7545 6.75424 11.7481 6.74608 11.7435 6.73529C11.7387 6.72413 11.7391 6.718 11.7391 6.72159H13.7391ZM12.3093 9.83798H12.301V11.838H12.3093V9.83798ZM11.301 10.838C11.301 10.7153 11.353 10.595 11.4369 10.5111L12.8511 11.9253C13.1333 11.6431 13.301 11.2583 13.301 10.838H11.301ZM11.4369 10.5111C11.5207 10.4272 11.641 10.3753 11.7638 10.3753V12.3753C12.184 12.3753 12.5689 12.2075 12.8511 11.9253L11.4369 10.5111ZM11.7638 10.3753H5.01884V12.3753H11.7638V10.3753ZM5.01884 10.3753C5.14156 10.3753 5.26186 10.4272 5.34572 10.5111L3.93151 11.9253C4.21374 12.2075 4.59855 12.3753 5.01884 12.3753V10.3753ZM5.34572 10.5111C5.42957 10.595 5.48156 10.7153 5.48156 10.838H3.48156C3.48156 11.2583 3.64927 11.6431 3.93151 11.9253L5.34572 10.5111ZM5.48156 10.838V6.72159H3.48156V10.838H5.48156ZM5.48156 6.72159C5.48156 6.84431 5.42957 6.96462 5.34572 7.04847L3.93151 5.63426C3.64927 5.91649 3.48156 6.3013 3.48156 6.72159H5.48156ZM5.34572 7.04847C5.26187 7.13233 5.14156 7.18432 5.01884 7.18432V5.18432C4.59855 5.18432 4.21374 5.35203 3.93151 5.63426L5.34572 7.04847ZM5.01884 7.18432H6.61415V5.18432H5.01884V7.18432ZM6.61415 7.18432C7.29042 7.18432 7.83732 6.63741 7.83732 5.96114H5.83732C5.83732 5.53284 6.18585 5.18432 6.61415 5.18432V7.18432ZM7.83732 5.96114V5.72143H5.83732V5.96114H7.83732ZM7.83732 5.72143C7.83732 5.87108 7.78176 6.05068 7.63535 6.19709L6.22114 4.78288C5.95901 5.04501 5.83732 5.38993 5.83732 5.72143H7.83732ZM7.63535 6.19709C7.48894 6.3435 7.30934 6.39906 7.15969 6.39906V4.39906C6.82819 4.39906 6.48327 4.52075 6.22114 4.78288L7.63535 6.19709ZM7.15969 6.39906H9.63117V4.39906H7.15969V6.39906ZM9.63117 6.39906C9.48152 6.39906 9.30192 6.3435 9.15551 6.19709L10.5697 4.78288C10.3076 4.52075 9.96267 4.39906 9.63117 4.39906V6.39906ZM9.15551 6.19709C9.0091 6.05068 8.95354 5.87108 8.95354 5.72143H10.9535C10.9535 5.38993 10.8319 5.04501 10.5697 4.78288L9.15551 6.19709ZM8.95354 5.72143V5.96114H10.9535V5.72143H8.95354ZM8.95354 5.96114C8.95354 6.63741 9.50044 7.18432 10.1767 7.18432V5.18432C10.605 5.18432 10.9535 5.53284 10.9535 5.96114H8.95354ZM10.1767 7.18432H11.772V5.18432H10.1767V7.18432ZM11.772 7.18432C11.6493 7.18432 11.529 7.13233 11.4451 7.04847L12.8594 5.63426C12.5771 5.35203 12.1923 5.18432 11.772 5.18432V7.18432ZM11.4451 7.04847C11.3613 6.96462 11.3093 6.84431 11.3093 6.72159H13.3093C13.3093 6.3013 13.1416 5.91649 12.8594 5.63426L11.4451 7.04847ZM11.3093 6.72159V10.838H13.3093V6.72159H11.3093Z" fill="white"/>
<path d="M12.4498 6.03553L11.7265 6.72601L11.7425 6.74283L11.7593 6.75889L12.4498 6.03553ZM10.3916 5.74623H9.39163V6.74623H10.3916V5.74623ZM10.1685 5.19242L9.46135 5.89952L9.47206 5.91023L9.48309 5.92062L10.1685 5.19242ZM6.3827 5.74623V6.74623H7.3827V5.74623H6.3827ZM4.33278 6.03553L5.03988 6.74264L5.0481 6.73442L5.05613 6.72601L4.33278 6.03553ZM4.04347 10.838H5.04347H4.04347ZM4.33278 11.524L5.03988 10.8169L5.03166 10.8087L5.02325 10.8007L4.33278 11.524ZM12.4498 11.524L11.7427 10.8169L11.7345 10.8252L11.7265 10.8336L12.4498 11.524ZM12.7391 6.72159H11.7391H12.7391ZM12.3093 10.838V11.838H13.3093V10.838H12.3093ZM12.301 10.838V9.83798H11.301V10.838H12.301ZM13.1732 5.34505C12.8115 4.96612 12.3106 4.74623 11.7638 4.74623V6.74623C11.7673 6.74623 11.7612 6.74661 11.7501 6.74183C11.7393 6.7372 11.7311 6.73087 11.7265 6.72601L13.1732 5.34505ZM11.7638 4.74623H10.3916V6.74623H11.7638V4.74623ZM11.3916 5.74623V5.72969H9.39163V5.74623H11.3916ZM11.3916 5.72969C11.3916 5.26776 11.2095 4.79901 10.8538 4.46422L9.48309 5.92062C9.44347 5.88332 9.42139 5.84599 9.40935 5.81704C9.39721 5.78783 9.39163 5.75867 9.39163 5.72969H11.3916ZM10.8756 4.48531C10.553 4.16271 10.1107 3.96924 9.63117 3.96924V5.96924C9.56498 5.96924 9.5029 5.94108 9.46135 5.89952L10.8756 4.48531ZM9.63117 3.96924H7.15142V5.96924H9.63117V3.96924ZM7.15142 3.96924C6.66943 3.96924 6.22551 4.15858 5.89877 4.48531L7.31299 5.89952C7.29257 5.91994 7.26595 5.93849 7.23463 5.95152C7.20295 5.96469 7.17357 5.96924 7.15142 5.96924V3.96924ZM5.89877 4.48531C5.57618 4.80791 5.3827 5.25021 5.3827 5.72969H7.3827C7.3827 5.79589 7.35454 5.85796 7.31299 5.89952L5.89877 4.48531ZM5.3827 5.72969V5.74623H7.3827V5.72969H5.3827ZM6.3827 4.74623H5.01884V6.74623H6.3827V4.74623ZM5.01884 4.74623C4.47196 4.74623 3.97113 4.96612 3.60942 5.34505L5.05613 6.72601C5.05149 6.73087 5.04332 6.7372 5.03253 6.74183C5.02138 6.74661 5.01525 6.74623 5.01884 6.74623V4.74623ZM3.62567 5.32842C3.28168 5.67242 3.04347 6.16859 3.04347 6.72159H5.04347C5.04347 6.73549 5.04049 6.7423 5.04049 6.7423C5.04042 6.74247 5.04059 6.74207 5.04096 6.74152C5.04136 6.74094 5.04121 6.74131 5.03988 6.74264L3.62567 5.32842ZM3.04347 6.72159V10.838H5.04347V6.72159H3.04347ZM3.04347 10.838C3.04347 11.3849 3.26337 11.8857 3.6423 12.2474L5.02325 10.8007C5.02812 10.8053 5.03445 10.8135 5.03908 10.8243C5.04386 10.8354 5.04347 10.8416 5.04347 10.838H3.04347ZM3.62567 12.2311C3.96966 12.5751 4.46584 12.8133 5.01884 12.8133V10.8133C5.03273 10.8133 5.03954 10.8163 5.03955 10.8163C5.03971 10.8164 5.03932 10.8162 5.03877 10.8159C5.03819 10.8155 5.03855 10.8156 5.03988 10.8169L3.62567 12.2311ZM5.01884 12.8133H11.7638V10.8133H5.01884V12.8133ZM11.7638 12.8133C12.3106 12.8133 12.8115 12.5935 13.1732 12.2145L11.7265 10.8336C11.7311 10.8287 11.7393 10.8224 11.7501 10.8177C11.7612 10.813 11.7673 10.8133 11.7638 10.8133V12.8133ZM13.1569 12.2311C13.5009 11.8872 13.7391 11.391 13.7391 10.838H11.7391C11.7391 10.8241 11.7421 10.8173 11.7421 10.8173C11.7422 10.8171 11.742 10.8175 11.7416 10.818C11.7412 10.8186 11.7414 10.8183 11.7427 10.8169L13.1569 12.2311ZM13.7391 10.838V6.72159H11.7391V10.838H13.7391ZM13.7391 6.72159C13.7391 6.17472 13.5192 5.67388 13.1403 5.31217L11.7593 6.75889C11.7545 6.75424 11.7481 6.74608 11.7435 6.73529C11.7387 6.72413 11.7391 6.718 11.7391 6.72159H13.7391ZM12.3093 9.83798H12.301V11.838H12.3093V9.83798ZM11.301 10.838C11.301 10.7153 11.353 10.595 11.4369 10.5111L12.8511 11.9253C13.1333 11.6431 13.301 11.2583 13.301 10.838H11.301ZM11.4369 10.5111C11.5207 10.4272 11.641 10.3753 11.7638 10.3753V12.3753C12.184 12.3753 12.5689 12.2075 12.8511 11.9253L11.4369 10.5111ZM11.7638 10.3753H5.01884V12.3753H11.7638V10.3753ZM5.01884 10.3753C5.14156 10.3753 5.26186 10.4272 5.34572 10.5111L3.93151 11.9253C4.21374 12.2075 4.59855 12.3753 5.01884 12.3753V10.3753ZM5.34572 10.5111C5.42957 10.595 5.48156 10.7153 5.48156 10.838H3.48156C3.48156 11.2583 3.64927 11.6431 3.93151 11.9253L5.34572 10.5111ZM5.48156 10.838V6.72159H3.48156V10.838H5.48156ZM5.48156 6.72159C5.48156 6.84431 5.42957 6.96462 5.34572 7.04847L3.93151 5.63426C3.64927 5.91649 3.48156 6.3013 3.48156 6.72159H5.48156ZM5.34572 7.04847C5.26187 7.13233 5.14156 7.18432 5.01884 7.18432V5.18432C4.59855 5.18432 4.21374 5.35203 3.93151 5.63426L5.34572 7.04847ZM5.01884 7.18432H6.61415V5.18432H5.01884V7.18432ZM6.61415 7.18432C7.29042 7.18432 7.83732 6.63741 7.83732 5.96114H5.83732C5.83732 5.53284 6.18585 5.18432 6.61415 5.18432V7.18432ZM7.83732 5.96114V5.72143H5.83732V5.96114H7.83732ZM7.83732 5.72143C7.83732 5.87108 7.78176 6.05068 7.63535 6.19709L6.22114 4.78288C5.95901 5.04501 5.83732 5.38993 5.83732 5.72143H7.83732ZM7.63535 6.19709C7.48894 6.3435 7.30934 6.39906 7.15969 6.39906V4.39906C6.82819 4.39906 6.48327 4.52075 6.22114 4.78288L7.63535 6.19709ZM7.15969 6.39906H9.63117V4.39906H7.15969V6.39906ZM9.63117 6.39906C9.48152 6.39906 9.30192 6.3435 9.15551 6.19709L10.5697 4.78288C10.3076 4.52075 9.96267 4.39906 9.63117 4.39906V6.39906ZM9.15551 6.19709C9.0091 6.05068 8.95354 5.87108 8.95354 5.72143H10.9535C10.9535 5.38993 10.8319 5.04501 10.5697 4.78288L9.15551 6.19709ZM8.95354 5.72143V5.96114H10.9535V5.72143H8.95354ZM8.95354 5.96114C8.95354 6.63741 9.50044 7.18432 10.1767 7.18432V5.18432C10.605 5.18432 10.9535 5.53284 10.9535 5.96114H8.95354ZM10.1767 7.18432H11.772V5.18432H10.1767V7.18432ZM11.772 7.18432C11.6493 7.18432 11.529 7.13233 11.4451 7.04847L12.8594 5.63426C12.5771 5.35203 12.1923 5.18432 11.772 5.18432V7.18432ZM11.4451 7.04847C11.3613 6.96462 11.3093 6.84431 11.3093 6.72159H13.3093C13.3093 6.3013 13.1416 5.91649 12.8594 5.63426L11.4451 7.04847ZM11.3093 6.72159V10.838H13.3093V6.72159H11.3093Z" fill="white"/>
</g>
<mask id="mask1" mask-type="alpha" maskUnits="userSpaceOnUse" x="6" y="6" width="5" height="5">
<path d="M8.39131 6.74658C7.82923 6.74658 7.31675 6.97803 6.95305 7.34172C6.58109 7.71369 6.35791 8.2179 6.35791 8.77998C6.35791 9.34206 6.58935 9.85454 6.95305 10.2182C7.32501 10.5902 7.82923 10.8134 8.39131 10.8134C8.95338 10.8134 9.46586 10.5819 9.82956 10.2182C10.2015 9.84627 10.4247 9.34206 10.4247 8.77998C10.4247 8.2179 10.1933 7.70542 9.82956 7.34172C9.46586 6.97803 8.95338 6.74658 8.39131 6.74658ZM9.51546 9.9124C9.22615 10.1934 8.82939 10.3753 8.39131 10.3753C7.95322 10.3753 7.55646 10.1934 7.26715 9.9124C6.97785 9.62309 6.80427 9.22633 6.80427 8.78824C6.80427 8.35015 6.98611 7.95339 7.26715 7.66409C7.55646 7.37479 7.95322 7.2012 8.39131 7.2012C8.82939 7.2012 9.22615 7.38305 9.51546 7.66409C9.80476 7.95339 9.97835 8.35015 9.97835 8.78824C9.98661 9.22633 9.80476 9.62309 9.51546 9.9124Z" fill="white"/>
</mask>
<g mask="url(#mask1)">
<path d="M8.39131 6.74658C7.82923 6.74658 7.31675 6.97803 6.95305 7.34172C6.58109 7.71369 6.35791 8.2179 6.35791 8.77998C6.35791 9.34206 6.58935 9.85454 6.95305 10.2182C7.32501 10.5902 7.82923 10.8134 8.39131 10.8134C8.95338 10.8134 9.46586 10.5819 9.82956 10.2182C10.2015 9.84627 10.4247 9.34206 10.4247 8.77998C10.4247 8.2179 10.1933 7.70542 9.82956 7.34172C9.46586 6.97803 8.95338 6.74658 8.39131 6.74658ZM9.51546 9.9124C9.22615 10.1934 8.82939 10.3753 8.39131 10.3753C7.95322 10.3753 7.55646 10.1934 7.26715 9.9124C6.97785 9.62309 6.80427 9.22633 6.80427 8.78824C6.80427 8.35015 6.98611 7.95339 7.26715 7.66409C7.55646 7.37479 7.95322 7.2012 8.39131 7.2012C8.82939 7.2012 9.22615 7.38305 9.51546 7.66409C9.80476 7.95339 9.97835 8.35015 9.97835 8.78824C9.98661 9.22633 9.80476 9.62309 9.51546 9.9124Z" fill="white"/>
<path d="M9.51546 9.9124L10.2122 10.6297L10.2174 10.6246L10.2226 10.6195L9.51546 9.9124ZM7.26715 9.9124L6.56005 10.6195L6.56517 10.6246L6.57037 10.6297L7.26715 9.9124ZM7.26715 7.66409L6.56005 6.95698L6.55492 6.96211L6.54987 6.9673L7.26715 7.66409ZM9.51546 7.66409L10.2226 6.95698L10.2174 6.95186L10.2122 6.94681L9.51546 7.66409ZM9.97835 8.78824H8.97835V8.79768L8.97852 8.80711L9.97835 8.78824ZM8.39131 5.74658C7.55244 5.74658 6.78884 6.09172 6.24594 6.63462L7.66016 8.04883C7.84466 7.86433 8.10601 7.74658 8.39131 7.74658V5.74658ZM6.24594 6.63462C5.69263 7.18793 5.35791 7.94407 5.35791 8.77998H7.35791C7.35791 8.49173 7.46955 8.23944 7.66016 8.04883L6.24594 6.63462ZM5.35791 8.77998C5.35791 9.61884 5.70305 10.3824 6.24594 10.9253L7.66016 9.51113C7.47566 9.32663 7.35791 9.06527 7.35791 8.77998H5.35791ZM6.24594 10.9253C6.79926 11.4787 7.5554 11.8134 8.39131 11.8134V9.81337C8.10306 9.81337 7.85077 9.70174 7.66016 9.51113L6.24594 10.9253ZM8.39131 11.8134C9.23017 11.8134 9.99378 11.4682 10.5367 10.9253L9.12245 9.51113C8.93795 9.69563 8.6766 9.81337 8.39131 9.81337V11.8134ZM10.5367 10.9253C11.09 10.372 11.4247 9.61589 11.4247 8.77998H9.4247C9.4247 9.06822 9.31306 9.32052 9.12245 9.51113L10.5367 10.9253ZM11.4247 8.77998C11.4247 7.94112 11.0796 7.17751 10.5367 6.63462L9.12245 8.04883C9.30696 8.23333 9.4247 8.49468 9.4247 8.77998H11.4247ZM10.5367 6.63462C9.99378 6.09172 9.23017 5.74658 8.39131 5.74658V7.74658C8.6766 7.74658 8.93795 7.86433 9.12245 8.04883L10.5367 6.63462ZM8.81867 9.19512C8.69971 9.31069 8.54733 9.37528 8.39131 9.37528V11.3753C9.11146 11.3753 9.7526 11.0762 10.2122 10.6297L8.81867 9.19512ZM8.39131 9.37528C8.23529 9.37528 8.08291 9.31069 7.96394 9.19512L6.57037 10.6297C7.03001 11.0762 7.67115 11.3753 8.39131 11.3753V9.37528ZM7.97426 9.20529C7.86877 9.0998 7.80427 8.95589 7.80427 8.78824H5.80427C5.80427 9.49677 6.08693 10.1464 6.56005 10.6195L7.97426 9.20529ZM7.80427 8.78824C7.80427 8.63222 7.86886 8.47984 7.98443 8.36088L6.54987 6.9673C6.10336 7.42695 5.80427 8.06809 5.80427 8.78824H7.80427ZM7.97426 8.3712C8.07975 8.2657 8.22366 8.2012 8.39131 8.2012V6.2012C7.68278 6.2012 7.03316 6.48387 6.56005 6.95698L7.97426 8.3712ZM8.39131 8.2012C8.54733 8.2012 8.69971 8.2658 8.81867 8.38137L10.2122 6.94681C9.7526 6.5003 9.11146 6.2012 8.39131 6.2012V8.2012ZM8.80835 8.3712C8.91385 8.47669 8.97835 8.62059 8.97835 8.78824H10.9783C10.9783 8.07972 10.6957 7.4301 10.2226 6.95698L8.80835 8.3712ZM8.97852 8.80711C8.98119 8.9484 8.92399 9.08966 8.80835 9.20529L10.2226 10.6195C10.6855 10.1565 10.992 9.50426 10.9782 8.76938L8.97852 8.80711Z" fill="white"/>
<path d="M9.51546 9.9124L10.2122 10.6297L10.2174 10.6246L10.2226 10.6195L9.51546 9.9124ZM7.26715 9.9124L6.56005 10.6195L6.56517 10.6246L6.57037 10.6297L7.26715 9.9124ZM7.26715 7.66409L6.56005 6.95698L6.55492 6.96211L6.54987 6.9673L7.26715 7.66409ZM9.51546 7.66409L10.2226 6.95698L10.2174 6.95186L10.2122 6.94681L9.51546 7.66409ZM9.97835 8.78824H8.97835V8.79768L8.97852 8.80711L9.97835 8.78824ZM8.39131 5.74658C7.55244 5.74658 6.78884 6.09172 6.24594 6.63462L7.66016 8.04883C7.84466 7.86433 8.10601 7.74658 8.39131 7.74658V5.74658ZM6.24594 6.63462C5.69263 7.18793 5.35791 7.94407 5.35791 8.77998H7.35791C7.35791 8.49173 7.46955 8.23944 7.66016 8.04883L6.24594 6.63462ZM5.35791 8.77998C5.35791 9.61884 5.70305 10.3824 6.24594 10.9253L7.66016 9.51113C7.47566 9.32663 7.35791 9.06527 7.35791 8.77998H5.35791ZM6.24594 10.9253C6.79926 11.4787 7.5554 11.8134 8.39131 11.8134V9.81337C8.10306 9.81337 7.85077 9.70174 7.66016 9.51113L6.24594 10.9253ZM8.39131 11.8134C9.23017 11.8134 9.99378 11.4682 10.5367 10.9253L9.12245 9.51113C8.93795 9.69563 8.6766 9.81337 8.39131 9.81337V11.8134ZM10.5367 10.9253C11.09 10.372 11.4247 9.61589 11.4247 8.77998H9.4247C9.4247 9.06822 9.31306 9.32052 9.12245 9.51113L10.5367 10.9253ZM11.4247 8.77998C11.4247 7.94112 11.0796 7.17751 10.5367 6.63462L9.12245 8.04883C9.30696 8.23333 9.4247 8.49468 9.4247 8.77998H11.4247ZM10.5367 6.63462C9.99378 6.09172 9.23017 5.74658 8.39131 5.74658V7.74658C8.6766 7.74658 8.93795 7.86433 9.12245 8.04883L10.5367 6.63462ZM8.81867 9.19512C8.69971 9.31069 8.54733 9.37528 8.39131 9.37528V11.3753C9.11146 11.3753 9.7526 11.0762 10.2122 10.6297L8.81867 9.19512ZM8.39131 9.37528C8.23529 9.37528 8.08291 9.31069 7.96394 9.19512L6.57037 10.6297C7.03001 11.0762 7.67115 11.3753 8.39131 11.3753V9.37528ZM7.97426 9.20529C7.86877 9.0998 7.80427 8.95589 7.80427 8.78824H5.80427C5.80427 9.49677 6.08693 10.1464 6.56005 10.6195L7.97426 9.20529ZM7.80427 8.78824C7.80427 8.63222 7.86886 8.47984 7.98443 8.36088L6.54987 6.9673C6.10336 7.42695 5.80427 8.06809 5.80427 8.78824H7.80427ZM7.97426 8.3712C8.07975 8.2657 8.22366 8.2012 8.39131 8.2012V6.2012C7.68278 6.2012 7.03316 6.48387 6.56005 6.95698L7.97426 8.3712ZM8.39131 8.2012C8.54733 8.2012 8.69971 8.2658 8.81867 8.38137L10.2122 6.94681C9.7526 6.5003 9.11146 6.2012 8.39131 6.2012V8.2012ZM8.80835 8.3712C8.91385 8.47669 8.97835 8.62059 8.97835 8.78824H10.9783C10.9783 8.07972 10.6957 7.4301 10.2226 6.95698L8.80835 8.3712ZM8.97852 8.80711C8.98119 8.9484 8.92399 9.08966 8.80835 9.20529L10.2226 10.6195C10.6855 10.1565 10.992 9.50426 10.9782 8.76938L8.97852 8.80711Z" fill="white"/>
</g>
</g>
<defs>
<clipPath id="clip0">
<rect width="16" height="16" fill="white"/>
</clipPath>
</defs>
</svg>
